<svg width="512" height="512" viewBox="0 0 512 512" fill="none" xmlns="http://www.w3.org/2000/svg">
  <circle cx="256" cy="256" r="250" stroke="#d33" stroke-width="12"/>
  <path d="M256 120C220 180 200 240 200 300C200 360 220 420 256 480C292 420 312 360 312 300C312 240 292 180 256 120Z" fill="#d33"/>
  <path d="M120 256C180 220 240 200 300 200C360 200 420 220 480 256C420 292 360 312 300 312C240 312 180 292 120 256Z" fill="#d33"/>
  <path d="M173 173C173 209 200 240 256 240C312 240 339 209 339 173C303 173 273 200 256 256C239 200 209 173 173 173Z" fill="#d33"/>
  <path d="M173 339C209 339 240 312 240 256C240 200 209 173 173 173C173 209 200 239 256 256C200 273 173 303 173 339Z" fill="#d33"/>
  <path d="M339 339C339 303 312 272 256 272C200 272 173 303 173 339C209 339 239 312 256 256C273 312 303 339 339 339Z" fill="#d33"/>
  <path d="M339 173C303 173 272 200 272 256C272 312 303 339 339 339C339 303 312 273 256 256C312 239 339 209 339 173Z" fill="#d33"/>
</svg>